<svg xmlns="http://www.w3.org/2000/svg" viewBox="0 0 200 200" width="200" height="200">
  <rect width="200" height="200" fill="#d4d0c8"/>
  <pattern id="d" width="3" height="3" patternUnits="userSpaceOnUse">
    <rect width="1" height="1" fill="#111"/>
    <rect x="1" y="1" width="1" height="1" fill="#111"/>
  </pattern>
  <rect width="200" height="200" fill="url(#d)" opacity="0.2"/>
  <ellipse cx="100" cy="110" rx="70" ry="80" fill="#bbb"/>
  <rect x="55" y="70" width="18" height="22" fill="#111"/>
  <rect x="127" y="70" width="18" height="22" fill="#111"/>
  <rect x="58" y="73" width="12" height="16" fill="#fff"/>
  <rect x="130" y="73" width="12" height="16" fill="#fff"/>
  <rect x="50" y="120" width="100" height="8" fill="#111"/>
  <rect x="45" y="132" width="8" height="10" fill="#fff"/>
  <rect x="55" y="132" width="8" height="10" fill="#fff"/>
  <rect x="65" y="132" width="8" height="10" fill="#fff"/>
  <rect x="75" y="132" width="8" height="10" fill="#fff"/>
  <rect x="85" y="132" width="8" height="10" fill="#fff"/>
  <rect x="95" y="132" width="8" height="10" fill="#fff"/>
  <rect x="105" y="132" width="8" height="10" fill="#fff"/>
  <rect x="115" y="132" width="8" height="10" fill="#fff"/>
  <rect x="125" y="132" width="8" height="10" fill="#fff"/>
  <rect x="135" y="132" width="8" height="10" fill="#fff"/>
  <rect x="145" y="132" width="8" height="10" fill="#fff"/>
</svg>
